<svg width="328" height="134" viewBox="0 0 328 134" fill="none" xmlns="http://www.w3.org/2000/svg">
<rect x="0.5" y="0.5" width="327" height="133" fill="white"/>
<path d="M173.334 50.3333H165.334V58.3333H162.667V50.3333H154.667V47.6667H162.667V39.6667H165.334V47.6667H173.334V50.3333Z" fill="#C8C8C8"/>
<path d="M47.4051 86.06H48.2311L52.3611 96H51.3251L50.0371 92.892H45.5711L44.2971 96H43.2471L47.4051 86.06ZM49.8131 92.122L47.8111 87.208L45.7811 92.122H49.8131ZM56.311 96.098C55.807 96.098 55.345 95.9953 54.925 95.79C54.5143 95.5847 54.155 95.3093 53.847 94.964C53.5483 94.6093 53.315 94.208 53.147 93.76C52.979 93.312 52.895 92.85 52.895 92.374C52.895 91.6927 53.0396 91.0673 53.329 90.498C53.6183 89.9193 54.015 89.4573 54.519 89.112C55.0323 88.7573 55.6203 88.58 56.283 88.58C56.9083 88.58 57.4496 88.7387 57.907 89.056C58.3736 89.3733 58.7656 89.7653 59.083 90.232V88.706H59.937V96.028C59.937 96.7093 59.7736 97.2787 59.447 97.736C59.1203 98.1933 58.6863 98.5387 58.145 98.772C57.6036 99.0053 57.011 99.122 56.367 99.122C55.527 99.122 54.8503 98.9727 54.337 98.674C53.833 98.3753 53.4176 97.974 53.091 97.47L53.679 97.008C53.9683 97.4653 54.351 97.806 54.827 98.03C55.3123 98.254 55.8256 98.366 56.367 98.366C56.843 98.366 57.277 98.2773 57.669 98.1C58.0703 97.932 58.3876 97.6753 58.621 97.33C58.8636 96.9847 58.985 96.5507 58.985 96.028V94.586C58.705 95.0433 58.3223 95.412 57.837 95.692C57.3516 95.9627 56.843 96.098 56.311 96.098ZM56.577 95.3C56.9596 95.3 57.3236 95.2113 57.669 95.034C58.0143 94.8567 58.3036 94.6327 58.537 94.362C58.7796 94.082 58.929 93.7927 58.985 93.494V91.24C58.845 90.8853 58.6443 90.5727 58.383 90.302C58.1216 90.022 57.823 89.8073 57.487 89.658C57.151 89.4993 56.8103 89.42 56.465 89.42C55.9236 89.42 55.457 89.5693 55.065 89.868C54.6823 90.1573 54.3836 90.5307 54.169 90.988C53.9636 91.436 53.861 91.9027 53.861 92.388C53.861 92.9107 53.9823 93.396 54.225 93.844C54.4676 94.2827 54.7943 94.6373 55.205 94.908C55.6156 95.1693 56.073 95.3 56.577 95.3ZM65.6793 89.546C65.0446 89.5647 64.4846 89.742 63.9993 90.078C63.5233 90.414 63.1873 90.876 62.9913 91.464V96H62.0393V88.706H62.9353V90.456C63.1873 89.9427 63.5186 89.5273 63.9293 89.21C64.3493 88.8927 64.7926 88.7153 65.2593 88.678C65.3526 88.6687 65.4319 88.664 65.4973 88.664C65.5626 88.664 65.6233 88.6687 65.6793 88.678V89.546ZM69.8787 96.14C69.1787 96.14 68.5534 95.9673 68.0027 95.622C67.452 95.2767 67.018 94.8147 66.7007 94.236C66.3834 93.6573 66.2247 93.0227 66.2247 92.332C66.2247 91.6507 66.3787 91.0253 66.6867 90.456C67.004 89.8867 67.438 89.434 67.9887 89.098C68.5394 88.7527 69.1647 88.58 69.8647 88.58C70.5834 88.58 71.2134 88.7527 71.7547 89.098C72.296 89.4433 72.716 89.9007 73.0147 90.47C73.3227 91.03 73.4767 91.646 73.4767 92.318C73.4767 92.4673 73.472 92.5933 73.4627 92.696H67.2187C67.2654 93.2187 67.4147 93.6853 67.6667 94.096C67.9187 94.4973 68.2407 94.8193 68.6327 95.062C69.0247 95.2953 69.454 95.412 69.9207 95.412C70.3967 95.412 70.8447 95.2907 71.2647 95.048C71.6847 94.8053 71.9834 94.488 72.1607 94.096L72.9867 94.32C72.8374 94.6747 72.604 94.992 72.2867 95.272C71.9787 95.5427 71.6194 95.7573 71.2087 95.916C70.798 96.0653 70.3547 96.14 69.8787 96.14ZM67.1907 92.01H72.5807C72.5434 91.4873 72.3987 91.0253 72.1467 90.624C71.8947 90.2133 71.5727 89.896 71.1807 89.672C70.7887 89.4387 70.3547 89.322 69.8787 89.322C69.4027 89.322 68.9687 89.4387 68.5767 89.672C68.1847 89.896 67.8627 90.2133 67.6107 90.624C67.368 91.0253 67.228 91.4873 67.1907 92.01ZM77.8715 96.098C77.3675 96.098 76.9055 95.9953 76.4855 95.79C76.0748 95.5847 75.7155 95.3093 75.4075 94.964C75.1088 94.6093 74.8755 94.208 74.7075 93.76C74.5395 93.312 74.4555 92.85 74.4555 92.374C74.4555 91.6927 74.6002 91.0673 74.8895 90.498C75.1788 89.9193 75.5755 89.4573 76.0795 89.112C76.5928 88.7573 77.1808 88.58 77.8435 88.58C78.4688 88.58 79.0102 88.7387 79.4675 89.056C79.9342 89.3733 80.3262 89.7653 80.6435 90.232V88.706H81.4975V96.028C81.4975 96.7093 81.3342 97.2787 81.0075 97.736C80.6808 98.1933 80.2468 98.5387 79.7055 98.772C79.1642 99.0053 78.5715 99.122 77.9275 99.122C77.0875 99.122 76.4108 98.9727 75.8975 98.674C75.3935 98.3753 74.9782 97.974 74.6515 97.47L75.2395 97.008C75.5288 97.4653 75.9115 97.806 76.3875 98.03C76.8728 98.254 77.3862 98.366 77.9275 98.366C78.4035 98.366 78.8375 98.2773 79.2295 98.1C79.6308 97.932 79.9482 97.6753 80.1815 97.33C80.4242 96.9847 80.5455 96.5507 80.5455 96.028V94.586C80.2655 95.0433 79.8828 95.412 79.3975 95.692C78.9122 95.9627 78.4035 96.098 77.8715 96.098ZM78.1375 95.3C78.5202 95.3 78.8842 95.2113 79.2295 95.034C79.5748 94.8567 79.8642 94.6327 80.0975 94.362C80.3402 94.082 80.4895 93.7927 80.5455 93.494V91.24C80.4055 90.8853 80.2048 90.5727 79.9435 90.302C79.6822 90.022 79.3835 89.8073 79.0475 89.658C78.7115 89.4993 78.3708 89.42 78.0255 89.42C77.4842 89.42 77.0175 89.5693 76.6255 89.868C76.2428 90.1573 75.9442 90.5307 75.7295 90.988C75.5242 91.436 75.4215 91.9027 75.4215 92.388C75.4215 92.9107 75.5428 93.396 75.7855 93.844C76.0282 94.2827 76.3548 94.6373 76.7655 94.908C77.1762 95.1693 77.6335 95.3 78.1375 95.3ZM83.0118 93.9C83.0118 93.452 83.1425 93.0647 83.4038 92.738C83.6651 92.402 84.0245 92.1407 84.4818 91.954C84.9485 91.7673 85.4851 91.674 86.0918 91.674C86.4465 91.674 86.8151 91.7067 87.1978 91.772C87.5805 91.828 87.9211 91.9073 88.2198 92.01V91.394C88.2198 90.778 88.0378 90.288 87.6738 89.924C87.3098 89.56 86.8058 89.378 86.1618 89.378C85.7791 89.378 85.3965 89.4527 85.0138 89.602C84.6311 89.742 84.2345 89.952 83.8238 90.232L83.4598 89.56C83.9358 89.2333 84.4025 88.9907 84.8598 88.832C85.3171 88.664 85.7838 88.58 86.2598 88.58C87.1558 88.58 87.8651 88.8367 88.3878 89.35C88.9105 89.8633 89.1718 90.5727 89.1718 91.478V94.852C89.1718 95.104 89.2885 95.2347 89.5218 95.244V96C89.3165 96.028 89.1718 96.0373 89.0878 96.028C88.8545 96.0187 88.6771 95.944 88.5558 95.804C88.4345 95.664 88.3691 95.5147 88.3598 95.356L88.3458 94.824C88.0191 95.244 87.5945 95.5707 87.0718 95.804C86.5491 96.028 86.0171 96.14 85.4758 96.14C84.9998 96.14 84.5751 96.042 84.2018 95.846C83.8285 95.6407 83.5345 95.37 83.3198 95.034C83.1145 94.6887 83.0118 94.3107 83.0118 93.9ZM87.8978 94.46C88.1125 94.208 88.2198 93.9747 88.2198 93.76V92.696C87.5758 92.444 86.9038 92.318 86.2038 92.318C85.5225 92.318 84.9718 92.4533 84.5518 92.724C84.1318 92.9947 83.9218 93.3633 83.9218 93.83C83.9218 94.2313 84.0758 94.5953 84.3838 94.922C84.7011 95.2487 85.1398 95.412 85.6998 95.412C86.1571 95.412 86.5818 95.3233 86.9738 95.146C87.3751 94.9687 87.6831 94.74 87.8978 94.46ZM94.8687 89.546C94.234 89.5647 93.674 89.742 93.1887 90.078C92.7127 90.414 92.3767 90.876 92.1807 91.464V96H91.2287V88.706H92.1247V90.456C92.3767 89.9427 92.708 89.5273 93.1187 89.21C93.5387 88.8927 93.982 88.7153 94.4487 88.678C94.542 88.6687 94.6214 88.664 94.6867 88.664C94.752 88.664 94.8127 88.6687 94.8687 88.678V89.546ZM99.3071 92.99V88.706H100.259V92.822C100.259 94.474 100.824 95.3 101.953 95.3C102.513 95.3 103.036 95.118 103.521 94.754C104.016 94.39 104.37 93.9047 104.585 93.298V88.706H105.537V94.852C105.537 95.104 105.649 95.2347 105.873 95.244V96C105.761 96.0187 105.672 96.028 105.607 96.028C105.551 96.028 105.49 96.028 105.425 96.028C105.229 96.0093 105.061 95.9347 104.921 95.804C104.79 95.6733 104.725 95.5147 104.725 95.328L104.697 94.348C104.38 94.9173 103.946 95.3607 103.395 95.678C102.854 95.986 102.266 96.14 101.631 96.14C100.082 96.14 99.3071 95.09 99.3071 92.99ZM113.822 96H112.87V91.926C112.87 91.0673 112.739 90.442 112.478 90.05C112.226 89.6487 111.834 89.448 111.302 89.448C110.928 89.448 110.56 89.5413 110.196 89.728C109.832 89.9053 109.51 90.1527 109.23 90.47C108.959 90.778 108.763 91.1327 108.642 91.534V96H107.69V88.706H108.558V90.358C108.847 89.826 109.272 89.3967 109.832 89.07C110.392 88.7433 110.998 88.58 111.652 88.58C112.193 88.58 112.622 88.7107 112.94 88.972C113.257 89.224 113.481 89.588 113.612 90.064C113.752 90.5307 113.822 91.086 113.822 91.73V96ZM115.264 93.9C115.264 93.452 115.394 93.0647 115.656 92.738C115.917 92.402 116.276 92.1407 116.734 91.954C117.2 91.7673 117.737 91.674 118.344 91.674C118.698 91.674 119.067 91.7067 119.45 91.772C119.832 91.828 120.173 91.9073 120.472 92.01V91.394C120.472 90.778 120.29 90.288 119.926 89.924C119.562 89.56 119.058 89.378 118.414 89.378C118.031 89.378 117.648 89.4527 117.266 89.602C116.883 89.742 116.486 89.952 116.076 90.232L115.712 89.56C116.188 89.2333 116.654 88.9907 117.112 88.832C117.569 88.664 118.036 88.58 118.512 88.58C119.408 88.58 120.117 88.8367 120.64 89.35C121.162 89.8633 121.424 90.5727 121.424 91.478V94.852C121.424 95.104 121.54 95.2347 121.774 95.244V96C121.568 96.028 121.424 96.0373 121.34 96.028C121.106 96.0187 120.929 95.944 120.808 95.804C120.686 95.664 120.621 95.5147 120.612 95.356L120.598 94.824C120.271 95.244 119.846 95.5707 119.324 95.804C118.801 96.028 118.269 96.14 117.728 96.14C117.252 96.14 116.827 96.042 116.454 95.846C116.08 95.6407 115.786 95.37 115.572 95.034C115.366 94.6887 115.264 94.3107 115.264 93.9ZM120.15 94.46C120.364 94.208 120.472 93.9747 120.472 93.76V92.696C119.828 92.444 119.156 92.318 118.456 92.318C117.774 92.318 117.224 92.4533 116.804 92.724C116.384 92.9947 116.174 93.3633 116.174 93.83C116.174 94.2313 116.328 94.5953 116.636 94.922C116.953 95.2487 117.392 95.412 117.952 95.412C118.409 95.412 118.834 95.3233 119.226 95.146C119.627 94.9687 119.935 94.74 120.15 94.46ZM127.049 87.18V85.78H128.001V87.18H127.049ZM127.049 96V88.706H128.001V96H127.049ZM140.948 96H139.996V91.926C139.996 91.086 139.861 90.4653 139.59 90.064C139.319 89.6533 138.918 89.448 138.386 89.448C137.826 89.448 137.331 89.644 136.902 90.036C136.473 90.428 136.169 90.932 135.992 91.548V96H135.04V91.926C135.04 91.0673 134.905 90.442 134.634 90.05C134.373 89.6487 133.976 89.448 133.444 89.448C132.893 89.448 132.399 89.6393 131.96 90.022C131.531 90.4047 131.227 90.9087 131.05 91.534V96H130.098V88.706H130.966V90.358C131.265 89.798 131.657 89.364 132.142 89.056C132.627 88.7387 133.164 88.58 133.752 88.58C134.359 88.58 134.849 88.7573 135.222 89.112C135.595 89.4573 135.824 89.9053 135.908 90.456C136.58 89.2053 137.518 88.58 138.722 88.58C139.543 88.58 140.117 88.8693 140.444 89.448C140.78 90.0173 140.948 90.778 140.948 91.73V96ZM142.375 93.9C142.375 93.452 142.506 93.0647 142.767 92.738C143.028 92.402 143.388 92.1407 143.845 91.954C144.312 91.7673 144.848 91.674 145.455 91.674C145.81 91.674 146.178 91.7067 146.561 91.772C146.944 91.828 147.284 91.9073 147.583 92.01V91.394C147.583 90.778 147.401 90.288 147.037 89.924C146.673 89.56 146.169 89.378 145.525 89.378C145.142 89.378 144.76 89.4527 144.377 89.602C143.994 89.742 143.598 89.952 143.187 90.232L142.823 89.56C143.299 89.2333 143.766 88.9907 144.223 88.832C144.68 88.664 145.147 88.58 145.623 88.58C146.519 88.58 147.228 88.8367 147.751 89.35C148.274 89.8633 148.535 90.5727 148.535 91.478V94.852C148.535 95.104 148.652 95.2347 148.885 95.244V96C148.68 96.028 148.535 96.0373 148.451 96.028C148.218 96.0187 148.04 95.944 147.919 95.804C147.798 95.664 147.732 95.5147 147.723 95.356L147.709 94.824C147.382 95.244 146.958 95.5707 146.435 95.804C145.912 96.028 145.38 96.14 144.839 96.14C144.363 96.14 143.938 96.042 143.565 95.846C143.192 95.6407 142.898 95.37 142.683 95.034C142.478 94.6887 142.375 94.3107 142.375 93.9ZM147.261 94.46C147.476 94.208 147.583 93.9747 147.583 93.76V92.696C146.939 92.444 146.267 92.318 145.567 92.318C144.886 92.318 144.335 92.4533 143.915 92.724C143.495 92.9947 143.285 93.3633 143.285 93.83C143.285 94.2313 143.439 94.5953 143.747 94.922C144.064 95.2487 144.503 95.412 145.063 95.412C145.52 95.412 145.945 95.3233 146.337 95.146C146.738 94.9687 147.046 94.74 147.261 94.46ZM153.518 96.098C153.014 96.098 152.552 95.9953 152.132 95.79C151.721 95.5847 151.362 95.3093 151.054 94.964C150.755 94.6093 150.522 94.208 150.354 93.76C150.186 93.312 150.102 92.85 150.102 92.374C150.102 91.6927 150.247 91.0673 150.536 90.498C150.825 89.9193 151.222 89.4573 151.726 89.112C152.239 88.7573 152.827 88.58 153.49 88.58C154.115 88.58 154.657 88.7387 155.114 89.056C155.581 89.3733 155.973 89.7653 156.29 90.232V88.706H157.144V96.028C157.144 96.7093 156.981 97.2787 156.654 97.736C156.327 98.1933 155.893 98.5387 155.352 98.772C154.811 99.0053 154.218 99.122 153.574 99.122C152.734 99.122 152.057 98.9727 151.544 98.674C151.04 98.3753 150.625 97.974 150.298 97.47L150.886 97.008C151.175 97.4653 151.558 97.806 152.034 98.03C152.519 98.254 153.033 98.366 153.574 98.366C154.05 98.366 154.484 98.2773 154.876 98.1C155.277 97.932 155.595 97.6753 155.828 97.33C156.071 96.9847 156.192 96.5507 156.192 96.028V94.586C155.912 95.0433 155.529 95.412 155.044 95.692C154.559 95.9627 154.05 96.098 153.518 96.098ZM153.784 95.3C154.167 95.3 154.531 95.2113 154.876 95.034C155.221 94.8567 155.511 94.6327 155.744 94.362C155.987 94.082 156.136 93.7927 156.192 93.494V91.24C156.052 90.8853 155.851 90.5727 155.59 90.302C155.329 90.022 155.03 89.8073 154.694 89.658C154.358 89.4993 154.017 89.42 153.672 89.42C153.131 89.42 152.664 89.5693 152.272 89.868C151.889 90.1573 151.591 90.5307 151.376 90.988C151.171 91.436 151.068 91.9027 151.068 92.388C151.068 92.9107 151.189 93.396 151.432 93.844C151.675 94.2827 152.001 94.6373 152.412 94.908C152.823 95.1693 153.28 95.3 153.784 95.3ZM162.396 96.14C161.696 96.14 161.071 95.9673 160.52 95.622C159.97 95.2767 159.536 94.8147 159.218 94.236C158.901 93.6573 158.742 93.0227 158.742 92.332C158.742 91.6507 158.896 91.0253 159.204 90.456C159.522 89.8867 159.956 89.434 160.506 89.098C161.057 88.7527 161.682 88.58 162.382 88.58C163.101 88.58 163.731 88.7527 164.272 89.098C164.814 89.4433 165.234 89.9007 165.532 90.47C165.84 91.03 165.994 91.646 165.994 92.318C165.994 92.4673 165.99 92.5933 165.98 92.696H159.736C159.783 93.2187 159.932 93.6853 160.184 94.096C160.436 94.4973 160.758 94.8193 161.15 95.062C161.542 95.2953 161.972 95.412 162.438 95.412C162.914 95.412 163.362 95.2907 163.782 95.048C164.202 94.8053 164.501 94.488 164.678 94.096L165.504 94.32C165.355 94.6747 165.122 94.992 164.804 95.272C164.496 95.5427 164.137 95.7573 163.726 95.916C163.316 96.0653 162.872 96.14 162.396 96.14ZM159.708 92.01H165.098C165.061 91.4873 164.916 91.0253 164.664 90.624C164.412 90.2133 164.09 89.896 163.698 89.672C163.306 89.4387 162.872 89.322 162.396 89.322C161.92 89.322 161.486 89.4387 161.094 89.672C160.702 89.896 160.38 90.2133 160.128 90.624C159.886 91.0253 159.746 91.4873 159.708 92.01ZM173.595 96H172.643V91.926C172.643 91.0673 172.512 90.442 172.251 90.05C171.999 89.6487 171.607 89.448 171.075 89.448C170.702 89.448 170.333 89.5413 169.969 89.728C169.605 89.9053 169.283 90.1527 169.003 90.47C168.732 90.778 168.536 91.1327 168.415 91.534V96H167.463V88.706H168.331V90.358C168.62 89.826 169.045 89.3967 169.605 89.07C170.165 88.7433 170.772 88.58 171.425 88.58C171.966 88.58 172.396 88.7107 172.713 88.972C173.03 89.224 173.254 89.588 173.385 90.064C173.525 90.5307 173.595 91.086 173.595 91.73V96ZM182.918 96.14C182.311 96.14 181.765 95.9813 181.28 95.664C180.804 95.3467 180.426 94.9547 180.146 94.488V98.982H179.194V88.706H180.048V90.12C180.337 89.6627 180.72 89.294 181.196 89.014C181.681 88.7247 182.204 88.58 182.764 88.58C183.268 88.58 183.73 88.6873 184.15 88.902C184.57 89.1073 184.934 89.3873 185.242 89.742C185.559 90.0967 185.802 90.5027 185.97 90.96C186.138 91.408 186.222 91.8747 186.222 92.36C186.222 93.0413 186.082 93.6713 185.802 94.25C185.531 94.8193 185.144 95.2767 184.64 95.622C184.145 95.9673 183.571 96.14 182.918 96.14ZM182.652 95.3C183.184 95.3 183.641 95.16 184.024 94.88C184.416 94.5907 184.719 94.222 184.934 93.774C185.148 93.326 185.256 92.8547 185.256 92.36C185.256 91.8373 185.134 91.352 184.892 90.904C184.649 90.456 184.322 90.0967 183.912 89.826C183.51 89.5553 183.053 89.42 182.54 89.42C182.222 89.42 181.886 89.504 181.532 89.672C181.186 89.8307 180.878 90.05 180.608 90.33C180.346 90.6007 180.192 90.8993 180.146 91.226V93.466C180.36 93.9793 180.696 94.4133 181.154 94.768C181.611 95.1227 182.11 95.3 182.652 95.3ZM187.246 93.9C187.246 93.452 187.377 93.0647 187.638 92.738C187.9 92.402 188.259 92.1407 188.716 91.954C189.183 91.7673 189.72 91.674 190.326 91.674C190.681 91.674 191.05 91.7067 191.432 91.772C191.815 91.828 192.156 91.9073 192.454 92.01V91.394C192.454 90.778 192.272 90.288 191.908 89.924C191.544 89.56 191.04 89.378 190.396 89.378C190.014 89.378 189.631 89.4527 189.248 89.602C188.866 89.742 188.469 89.952 188.058 90.232L187.694 89.56C188.17 89.2333 188.637 88.9907 189.094 88.832C189.552 88.664 190.018 88.58 190.494 88.58C191.39 88.58 192.1 88.8367 192.622 89.35C193.145 89.8633 193.406 90.5727 193.406 91.478V94.852C193.406 95.104 193.523 95.2347 193.756 95.244V96C193.551 96.028 193.406 96.0373 193.322 96.028C193.089 96.0187 192.912 95.944 192.79 95.804C192.669 95.664 192.604 95.5147 192.594 95.356L192.58 94.824C192.254 95.244 191.829 95.5707 191.306 95.804C190.784 96.028 190.252 96.14 189.71 96.14C189.234 96.14 188.81 96.042 188.436 95.846C188.063 95.6407 187.769 95.37 187.554 95.034C187.349 94.6887 187.246 94.3107 187.246 93.9ZM192.132 94.46C192.347 94.208 192.454 93.9747 192.454 93.76V92.696C191.81 92.444 191.138 92.318 190.438 92.318C189.757 92.318 189.206 92.4533 188.786 92.724C188.366 92.9947 188.156 93.3633 188.156 93.83C188.156 94.2313 188.31 94.5953 188.618 94.922C188.936 95.2487 189.374 95.412 189.934 95.412C190.392 95.412 190.816 95.3233 191.208 95.146C191.61 94.9687 191.918 94.74 192.132 94.46ZM199.103 89.546C198.468 89.5647 197.908 89.742 197.423 90.078C196.947 90.414 196.611 90.876 196.415 91.464V96H195.463V88.706H196.359V90.456C196.611 89.9427 196.942 89.5273 197.353 89.21C197.773 88.8927 198.216 88.7153 198.683 88.678C198.776 88.6687 198.856 88.664 198.921 88.664C198.986 88.664 199.047 88.6687 199.103 88.678V89.546ZM199.756 93.9C199.756 93.452 199.887 93.0647 200.148 92.738C200.409 92.402 200.769 92.1407 201.226 91.954C201.693 91.7673 202.229 91.674 202.836 91.674C203.191 91.674 203.559 91.7067 203.942 91.772C204.325 91.828 204.665 91.9073 204.964 92.01V91.394C204.964 90.778 204.782 90.288 204.418 89.924C204.054 89.56 203.55 89.378 202.906 89.378C202.523 89.378 202.141 89.4527 201.758 89.602C201.375 89.742 200.979 89.952 200.568 90.232L200.204 89.56C200.68 89.2333 201.147 88.9907 201.604 88.832C202.061 88.664 202.528 88.58 203.004 88.58C203.9 88.58 204.609 88.8367 205.132 89.35C205.655 89.8633 205.916 90.5727 205.916 91.478V94.852C205.916 95.104 206.033 95.2347 206.266 95.244V96C206.061 96.028 205.916 96.0373 205.832 96.028C205.599 96.0187 205.421 95.944 205.3 95.804C205.179 95.664 205.113 95.5147 205.104 95.356L205.09 94.824C204.763 95.244 204.339 95.5707 203.816 95.804C203.293 96.028 202.761 96.14 202.22 96.14C201.744 96.14 201.319 96.042 200.946 95.846C200.573 95.6407 200.279 95.37 200.064 95.034C199.859 94.6887 199.756 94.3107 199.756 93.9ZM204.642 94.46C204.857 94.208 204.964 93.9747 204.964 93.76V92.696C204.32 92.444 203.648 92.318 202.948 92.318C202.267 92.318 201.716 92.4533 201.296 92.724C200.876 92.9947 200.666 93.3633 200.666 93.83C200.666 94.2313 200.82 94.5953 201.128 94.922C201.445 95.2487 201.884 95.412 202.444 95.412C202.901 95.412 203.326 95.3233 203.718 95.146C204.119 94.9687 204.427 94.74 204.642 94.46ZM214.691 96.14C213.991 96.14 213.366 95.9673 212.815 95.622C212.265 95.2767 211.831 94.8147 211.513 94.236C211.196 93.6573 211.037 93.0227 211.037 92.332C211.037 91.6507 211.191 91.0253 211.499 90.456C211.817 89.8867 212.251 89.434 212.801 89.098C213.352 88.7527 213.977 88.58 214.677 88.58C215.396 88.58 216.026 88.7527 216.567 89.098C217.109 89.4433 217.529 89.9007 217.827 90.47C218.135 91.03 218.289 91.646 218.289 92.318C218.289 92.4673 218.285 92.5933 218.275 92.696H212.031C212.078 93.2187 212.227 93.6853 212.479 94.096C212.731 94.4973 213.053 94.8193 213.445 95.062C213.837 95.2953 214.267 95.412 214.733 95.412C215.209 95.412 215.657 95.2907 216.077 95.048C216.497 94.8053 216.796 94.488 216.973 94.096L217.799 94.32C217.65 94.6747 217.417 94.992 217.099 95.272C216.791 95.5427 216.432 95.7573 216.021 95.916C215.611 96.0653 215.167 96.14 214.691 96.14ZM212.003 92.01H217.393C217.356 91.4873 217.211 91.0253 216.959 90.624C216.707 90.2133 216.385 89.896 215.993 89.672C215.601 89.4387 215.167 89.322 214.691 89.322C214.215 89.322 213.781 89.4387 213.389 89.672C212.997 89.896 212.675 90.2133 212.423 90.624C212.181 91.0253 212.041 91.4873 212.003 92.01ZM219.8 85.78H220.752V94.348C220.752 94.712 220.813 94.95 220.934 95.062C221.065 95.174 221.228 95.23 221.424 95.23C221.592 95.23 221.76 95.2113 221.928 95.174C222.105 95.1367 222.25 95.0993 222.362 95.062L222.53 95.832C222.353 95.9067 222.133 95.9673 221.872 96.014C221.62 96.0607 221.401 96.084 221.214 96.084C220.785 96.084 220.439 95.958 220.178 95.706C219.926 95.454 219.8 95.1087 219.8 94.67V85.78ZM230.441 96.14C229.834 96.14 229.288 95.9813 228.803 95.664C228.327 95.3467 227.949 94.9547 227.669 94.488V98.982H226.717V88.706H227.571V90.12C227.86 89.6627 228.243 89.294 228.719 89.014C229.204 88.7247 229.727 88.58 230.287 88.58C230.791 88.58 231.253 88.6873 231.673 88.902C232.093 89.1073 232.457 89.3873 232.765 89.742C233.082 90.0967 233.325 90.5027 233.493 90.96C233.661 91.408 233.745 91.8747 233.745 92.36C233.745 93.0413 233.605 93.6713 233.325 94.25C233.054 94.8193 232.667 95.2767 232.163 95.622C231.668 95.9673 231.094 96.14 230.441 96.14ZM230.175 95.3C230.707 95.3 231.164 95.16 231.547 94.88C231.939 94.5907 232.242 94.222 232.457 93.774C232.672 93.326 232.779 92.8547 232.779 92.36C232.779 91.8373 232.658 91.352 232.415 90.904C232.172 90.456 231.846 90.0967 231.435 89.826C231.034 89.5553 230.576 89.42 230.063 89.42C229.746 89.42 229.41 89.504 229.055 89.672C228.71 89.8307 228.402 90.05 228.131 90.33C227.87 90.6007 227.716 90.8993 227.669 91.226V93.466C227.884 93.9793 228.22 94.4133 228.677 94.768C229.134 95.1227 229.634 95.3 230.175 95.3ZM238.998 89.546C238.363 89.5647 237.803 89.742 237.318 90.078C236.842 90.414 236.506 90.876 236.31 91.464V96H235.358V88.706H236.254V90.456C236.506 89.9427 236.837 89.5273 237.248 89.21C237.668 88.8927 238.111 88.7153 238.578 88.678C238.671 88.6687 238.75 88.664 238.816 88.664C238.881 88.664 238.942 88.6687 238.998 88.678V89.546ZM243.155 96.14C242.455 96.14 241.83 95.9673 241.279 95.622C240.738 95.2767 240.313 94.8193 240.005 94.25C239.697 93.6713 239.543 93.046 239.543 92.374C239.543 91.6927 239.697 91.0673 240.005 90.498C240.322 89.9193 240.752 89.4573 241.293 89.112C241.844 88.7573 242.464 88.58 243.155 88.58C243.855 88.58 244.476 88.7573 245.017 89.112C245.568 89.4573 245.997 89.9193 246.305 90.498C246.622 91.0673 246.781 91.6927 246.781 92.374C246.781 93.046 246.627 93.6713 246.319 94.25C246.011 94.8193 245.582 95.2767 245.031 95.622C244.49 95.9673 243.864 96.14 243.155 96.14ZM240.509 92.388C240.509 92.9293 240.626 93.424 240.859 93.872C241.102 94.3107 241.424 94.6607 241.825 94.922C242.226 95.174 242.67 95.3 243.155 95.3C243.64 95.3 244.084 95.1693 244.485 94.908C244.886 94.6467 245.208 94.292 245.451 93.844C245.694 93.396 245.815 92.9013 245.815 92.36C245.815 91.8187 245.694 91.324 245.451 90.876C245.208 90.428 244.886 90.0733 244.485 89.812C244.084 89.5507 243.64 89.42 243.155 89.42C242.679 89.42 242.24 89.5553 241.839 89.826C241.438 90.0873 241.116 90.442 240.873 90.89C240.63 91.338 240.509 91.8373 240.509 92.388ZM247.883 92.374C247.883 91.6833 248.023 91.0533 248.303 90.484C248.593 89.9053 248.989 89.4433 249.493 89.098C249.997 88.7527 250.571 88.58 251.215 88.58C251.822 88.58 252.363 88.7433 252.839 89.07C253.325 89.3873 253.703 89.7747 253.973 90.232V85.78H254.925V94.852C254.925 95.104 255.037 95.2347 255.261 95.244V96C255.075 96.028 254.93 96.0373 254.827 96.028C254.622 96.0187 254.445 95.944 254.295 95.804C254.155 95.6547 254.085 95.4867 254.085 95.3V94.586C253.796 95.062 253.404 95.44 252.909 95.72C252.415 96 251.901 96.14 251.369 96.14C250.865 96.14 250.399 96.0373 249.969 95.832C249.54 95.6267 249.167 95.3467 248.849 94.992C248.541 94.6373 248.303 94.236 248.135 93.788C247.967 93.3307 247.883 92.8593 247.883 92.374ZM253.973 93.494V91.24C253.852 90.904 253.656 90.6007 253.385 90.33C253.115 90.05 252.807 89.8307 252.461 89.672C252.125 89.504 251.789 89.42 251.453 89.42C250.931 89.42 250.473 89.5647 250.081 89.854C249.699 90.134 249.4 90.5027 249.185 90.96C248.971 91.408 248.863 91.8793 248.863 92.374C248.863 92.8967 248.98 93.382 249.213 93.83C249.456 94.278 249.783 94.6373 250.193 94.908C250.604 95.1693 251.066 95.3 251.579 95.3C251.897 95.3 252.228 95.2207 252.573 95.062C252.928 94.894 253.236 94.6747 253.497 94.404C253.768 94.1333 253.927 93.83 253.973 93.494ZM257.012 92.99V88.706H257.964V92.822C257.964 94.474 258.529 95.3 259.658 95.3C260.218 95.3 260.741 95.118 261.226 94.754C261.721 94.39 262.076 93.9047 262.29 93.298V88.706H263.242V94.852C263.242 95.104 263.354 95.2347 263.578 95.244V96C263.466 96.0187 263.378 96.028 263.312 96.028C263.256 96.028 263.196 96.028 263.13 96.028C262.934 96.0093 262.766 95.9347 262.626 95.804C262.496 95.6733 262.43 95.5147 262.43 95.328L262.402 94.348C262.085 94.9173 261.651 95.3607 261.1 95.678C260.559 95.986 259.971 96.14 259.336 96.14C257.787 96.14 257.012 95.09 257.012 92.99ZM268.559 96.14C267.849 96.14 267.219 95.9673 266.669 95.622C266.118 95.2673 265.684 94.8053 265.367 94.236C265.049 93.6573 264.891 93.0227 264.891 92.332C264.891 91.6413 265.045 91.016 265.353 90.456C265.661 89.8867 266.09 89.434 266.641 89.098C267.191 88.7527 267.826 88.58 268.545 88.58C269.226 88.58 269.823 88.7387 270.337 89.056C270.859 89.364 271.251 89.784 271.513 90.316L270.589 90.61C270.383 90.2367 270.094 89.9473 269.721 89.742C269.357 89.5273 268.951 89.42 268.503 89.42C268.008 89.42 267.56 89.546 267.159 89.798C266.767 90.05 266.449 90.4 266.207 90.848C265.973 91.2867 265.857 91.7813 265.857 92.332C265.857 92.8827 265.978 93.382 266.221 93.83C266.463 94.278 266.785 94.6373 267.187 94.908C267.588 95.1693 268.031 95.3 268.517 95.3C268.834 95.3 269.142 95.244 269.441 95.132C269.739 95.02 269.996 94.8707 270.211 94.684C270.425 94.488 270.57 94.278 270.645 94.054L271.583 94.334C271.452 94.6793 271.237 94.992 270.939 95.272C270.64 95.5427 270.285 95.7573 269.875 95.916C269.464 96.0653 269.025 96.14 268.559 96.14ZM276.578 95.65C276.466 95.6967 276.261 95.7807 275.962 95.902C275.664 96.0233 275.318 96.084 274.926 96.084C274.516 96.084 274.156 95.9673 273.848 95.734C273.54 95.5007 273.386 95.1507 273.386 94.684V89.462H272.378V88.706H273.386V86.242H274.338V88.706H276.018V89.462H274.338V94.418C274.357 94.6887 274.45 94.8893 274.618 95.02C274.796 95.1413 274.996 95.202 275.22 95.202C275.482 95.202 275.715 95.16 275.92 95.076C276.135 94.9827 276.27 94.9173 276.326 94.88L276.578 95.65ZM280.753 96.14C280.053 96.14 279.427 95.9673 278.877 95.622C278.335 95.2767 277.911 94.8193 277.603 94.25C277.295 93.6713 277.141 93.046 277.141 92.374C277.141 91.6927 277.295 91.0673 277.603 90.498C277.92 89.9193 278.349 89.4573 278.891 89.112C279.441 88.7573 280.062 88.58 280.753 88.58C281.453 88.58 282.073 88.7573 282.615 89.112C283.165 89.4573 283.595 89.9193 283.903 90.498C284.22 91.0673 284.379 91.6927 284.379 92.374C284.379 93.046 284.225 93.6713 283.917 94.25C283.609 94.8193 283.179 95.2767 282.629 95.622C282.087 95.9673 281.462 96.14 280.753 96.14ZM278.107 92.388C278.107 92.9293 278.223 93.424 278.457 93.872C278.699 94.3107 279.021 94.6607 279.423 94.922C279.824 95.174 280.267 95.3 280.753 95.3C281.238 95.3 281.681 95.1693 282.083 94.908C282.484 94.6467 282.806 94.292 283.049 93.844C283.291 93.396 283.413 92.9013 283.413 92.36C283.413 91.8187 283.291 91.324 283.049 90.876C282.806 90.428 282.484 90.0733 282.083 89.812C281.681 89.5507 281.238 89.42 280.753 89.42C280.277 89.42 279.838 89.5553 279.437 89.826C279.035 90.0873 278.713 90.442 278.471 90.89C278.228 91.338 278.107 91.8373 278.107 92.388Z" fill="#6B6B6B"/>
<rect x="0.5" y="0.5" width="327" height="133" stroke="#C8C8C8" stroke-dasharray="6 6"/>
</svg>
